<svg width="82" height="82" viewBox="0 0 82 82" fill="none" xmlns="http://www.w3.org/2000/svg">
<path fill-rule="evenodd" clip-rule="evenodd" d="M18.0416 46.1666C34.9958 46.1666 35.7499 51.9166 35.7499 63.875C35.7499 69.8666 35.7499 74.1291 33.2332 77.25C30.3374 80.8458 25.0666 81.5833 18.0416 81.5833C11.0166 81.5833 5.74575 80.8458 2.84992 77.25C0.333252 74.1291 0.333252 69.8708 0.333252 63.9791L3.45825 63.875H0.333252C0.333252 51.9166 1.08742 46.1666 18.0416 46.1666ZM63.8749 46.1666C80.8291 46.1666 81.5833 51.9166 81.5833 63.875C81.5833 69.8666 81.5833 74.1291 79.0666 77.25C76.1707 80.8458 70.8999 81.5833 63.8749 81.5833C56.8499 81.5833 51.5791 80.8458 48.6833 77.25C46.1666 74.1291 46.1666 69.8708 46.1666 63.9791L49.2916 63.875H46.1666C46.1666 51.9166 46.9207 46.1666 63.8749 46.1666ZM18.9006 52.4185L18.0416 52.4166C7.17086 52.4166 6.61339 53.1967 6.5848 62.321L6.58654 65.8757C6.6063 69.5047 6.74456 72.1262 7.71242 73.3333C8.81658 74.7 12.0958 75.3333 18.0416 75.3333C23.9874 75.3333 27.2666 74.6958 28.3708 73.3291C29.4999 71.925 29.4999 68.5916 29.4999 63.975C29.4999 53.5575 29.4999 52.4675 18.9006 52.4185ZM64.7339 52.4185L63.8749 52.4166C53.0042 52.4166 52.4467 53.1967 52.4181 62.321L52.4199 65.8757C52.4396 69.5047 52.5779 72.1262 53.5457 73.3333C54.6499 74.7 57.9291 75.3333 63.8749 75.3333C69.8207 75.3333 73.0999 74.6958 74.2041 73.3291C75.3333 71.925 75.3333 68.5916 75.3333 63.975C75.3333 53.5575 75.3332 52.4675 64.7339 52.4185ZM18.0416 0.333313C34.9958 0.333313 35.7499 6.08331 35.7499 18.0416C35.7499 24.0333 35.7499 28.2958 33.2332 31.4166C30.3374 35.0125 25.0666 35.75 18.0416 35.75C11.0166 35.75 5.74575 35.0125 2.84992 31.4166C0.333252 28.2958 0.333252 24.0375 0.333252 18.1458L3.45825 18.0416H0.333252C0.333252 6.08331 1.08742 0.333313 18.0416 0.333313ZM63.8749 0.333313C80.8291 0.333313 81.5833 6.08331 81.5833 18.0416C81.5833 24.0333 81.5833 28.2958 79.0666 31.4166C76.1707 35.0125 70.8999 35.75 63.8749 35.75C56.8499 35.75 51.5791 35.0125 48.6833 31.4166C46.1666 28.2958 46.1666 24.0375 46.1666 18.1458L49.2916 18.0416H46.1666C46.1666 6.08331 46.9207 0.333313 63.8749 0.333313ZM18.9006 6.58517L18.0416 6.58331C7.17086 6.58331 6.61339 7.36337 6.5848 16.4877L6.58654 20.0424C6.6063 23.6714 6.74456 26.2928 7.71242 27.5C8.81658 28.8666 12.0958 29.5 18.0416 29.5C23.9874 29.5 27.2666 28.8625 28.3708 27.4958C29.4999 26.0916 29.4999 22.7583 29.4999 18.1416C29.4999 7.72413 29.4999 6.63422 18.9006 6.58517ZM64.7339 6.58517L63.8749 6.58331C53.0042 6.58331 52.4467 7.36337 52.4181 16.4877L52.4199 20.0424C52.4396 23.6714 52.5779 26.2928 53.5457 27.5C54.6499 28.8666 57.9291 29.5 63.8749 29.5C69.8207 29.5 73.0999 28.8625 74.2041 27.4958C75.3333 26.0916 75.3333 22.7583 75.3333 18.1416C75.3333 7.72413 75.3332 6.63422 64.7339 6.58517Z" fill="black"/>
</svg>
